<?xml version="1.0" encoding="UTF-8"?>
<!DOCTYPE svg PUBLIC "-//W3C//DTD SVG 1.1//EN" "http://www.w3.org/Graphics/SVG/1.1/DTD/svg11.dtd">
<svg version="1.1" xmlns="http://www.w3.org/2000/svg" xmlns:xlink="http://www.w3.org/1999/xlink"
  x="0" y="0" width="367" height="449" viewBox="0, 0, 367, 449">
  <g id="Layer_1">
    <g class="leftLeg">
      <path
        d="M139.507,420.545 C139.507,420.545 161.507,391.506 157.109,361.584 C152.711,331.67 140.39,352.787 140.39,352.787 C140.39,352.787 148.312,398.545 135.109,413.506 C121.914,428.463 139.507,420.545 139.507,420.545"
        fill="#FACA22" />
      <path
        d="M139.507,420.545 C139.507,420.545 161.507,391.506 157.109,361.584 C152.711,331.67 140.39,352.787 140.39,352.787 C140.39,352.787 148.312,398.545 135.109,413.506 C121.914,428.463 139.507,420.545 139.507,420.545 z"
        fill-opacity="0" stroke="#5F4A3E" stroke-width="4.8" stroke-linecap="round"
        stroke-linejoin="round" />
      <path d="M144.398,379.432 C144.398,379.432 153.148,375.178 155.148,381.432" fill="#FACA22" />
      <path d="M144.398,379.432 C144.398,379.432 153.148,375.178 155.148,381.432" fill-opacity="0"
        stroke="#5F4A3E" stroke-width="4.8" stroke-linecap="round" stroke-linejoin="round" />
      <path d="M142.648,391.185 C142.648,391.185 152.898,388.182 153.398,393.185" fill="#FACA22" />
      <path d="M142.648,391.185 C142.648,391.185 152.898,388.182 153.398,393.185" fill-opacity="0"
        stroke="#5F4A3E" stroke-width="4.8" stroke-linecap="round" stroke-linejoin="round" />
      <path d="M143.148,397.935 C143.148,397.935 149.398,395.935 149.898,400.935" fill="#FACA22" />
      <path d="M143.148,397.935 C143.148,397.935 149.398,395.935 149.898,400.935" fill-opacity="0"
        stroke="#5F4A3E" stroke-width="4.8" stroke-linecap="round" stroke-linejoin="round" />
    </g>
    <g class="rightLeg">
      <path
        d="M215.523,433.045 C215.523,433.045 237.523,404.006 233.125,374.088 C228.726,344.17 216.406,365.287 216.406,365.287 C216.406,365.287 224.324,411.045 211.125,426.006 C197.925,440.967 215.523,433.045 215.523,433.045"
        fill="#FACA22" />
      <path
        d="M215.523,433.045 C215.523,433.045 237.523,404.006 233.125,374.088 C228.726,344.17 216.406,365.287 216.406,365.287 C216.406,365.287 224.324,411.045 211.125,426.006 C197.925,440.967 215.523,433.045 215.523,433.045 z"
        fill-opacity="0" stroke="#5F4A3E" stroke-width="4.8" stroke-linecap="round"
        stroke-linejoin="round" />
      <path d="M220.41,391.935 C220.41,391.935 229.164,387.682 231.164,393.935" fill="#FACA22" />
      <path d="M220.41,391.935 C220.41,391.935 229.164,387.682 231.164,393.935" fill-opacity="0"
        stroke="#5F4A3E" stroke-width="4.8" stroke-linecap="round" stroke-linejoin="round" />
      <path d="M218.66,403.685 C218.66,403.685 228.914,400.685 229.414,405.685" fill="#FACA22" />
      <path d="M218.66,403.685 C218.66,403.685 228.914,400.685 229.414,405.685" fill-opacity="0"
        stroke="#5F4A3E" stroke-width="4.8" stroke-linecap="round" stroke-linejoin="round" />
      <path d="M219.16,410.435 C219.16,410.435 225.41,408.435 225.91,413.435" fill="#FACA22" />
      <path d="M219.16,410.435 C219.16,410.435 225.41,408.435 225.91,413.435" fill-opacity="0"
        stroke="#5F4A3E" stroke-width="4.8" stroke-linecap="round" stroke-linejoin="round" />
    </g>
    <g class="leftWing">
      <path
        d="M132.504,195.328 C132.504,195.328 41.191,151.097 39.765,125.416 C38.335,99.734 -7.321,136.83 26.921,175.353 C61.164,213.877 42.617,196.756 42.617,196.756 C42.617,196.756 21.21,172.502 8.375,191.049 C-4.469,209.596 2.664,232.426 36.91,230.998 C70.281,229.607 24.07,220.812 24.07,266.668 C24.07,290.924 68.296,310.896 105.398,295.203"
        fill="#FFFFFE" />
      <path
        d="M132.504,195.328 C132.504,195.328 41.191,151.097 39.765,125.416 C38.335,99.734 -7.321,136.83 26.921,175.353 C61.164,213.877 42.617,196.756 42.617,196.756 C42.617,196.756 21.21,172.502 8.375,191.049 C-4.469,209.596 2.664,232.426 36.91,230.998 C70.281,229.607 24.07,220.812 24.07,266.668 C24.07,290.924 68.296,310.896 105.398,295.203"
        fill-opacity="0" stroke="#5F4A3E" stroke-width="4.8" stroke-linecap="round"
        stroke-linejoin="round" />
    </g>
    <g class="comb">
      <path
        d="M173.882,30.537 C170.5,30.537 167.312,31.568 164.445,33.361 C162.601,16.363 151.578,3.285 138.211,3.285 C126.953,3.285 117.359,12.57 113.5,25.654 C112.941,25.598 112.382,25.541 111.812,25.541 C99.601,25.541 89.699,38.637 89.699,54.789 C89.699,70.943 99.601,84.039 111.812,84.039 C119.265,84.039 125.843,79.148 129.851,71.678 C132.484,72.832 135.289,73.482 138.211,73.482 C143.531,73.482 148.476,71.391 152.632,67.824 C155.273,80.064 163.777,89.035 173.882,89.035 C186.093,89.035 195.996,75.939 195.996,59.785 C195.996,43.633 186.093,30.537 173.882,30.537"
        fill="#AD2E3D" />
      <path
        d="M173.882,30.537 C170.5,30.537 167.312,31.568 164.445,33.361 C162.601,16.363 151.578,3.285 138.211,3.285 C126.953,3.285 117.359,12.57 113.5,25.654 C112.941,25.598 112.382,25.541 111.812,25.541 C99.601,25.541 89.699,38.637 89.699,54.789 C89.699,70.943 99.601,84.039 111.812,84.039 C119.265,84.039 125.843,79.148 129.851,71.678 C132.484,72.832 135.289,73.482 138.211,73.482 C143.531,73.482 148.476,71.391 152.632,67.824 C155.273,80.064 163.777,89.035 173.882,89.035 C186.093,89.035 195.996,75.939 195.996,59.785 C195.996,43.633 186.093,30.537 173.882,30.537 z"
        fill-opacity="0" stroke="#5F4A3E" stroke-width="4.8" stroke-linecap="round" />
    </g>
    <g class="body">
      <path
        d="M363.64,240.984 C363.64,318.209 273.336,382.24 202.414,382.24 C131.496,382.24 69.722,338.182 69.722,260.959 C69.722,183.734 114.375,145.393 185.293,145.393 C217.5,145.393 241.714,190.01 269.472,203.889 C323.691,230.998 363.64,198.832 363.64,240.984"
        fill="#FFFFFE" />
      <path
        d="M363.64,240.984 C363.64,318.209 273.336,382.24 202.414,382.24 C131.496,382.24 69.722,338.182 69.722,260.959 C69.722,183.734 114.375,145.393 185.293,145.393 C217.5,145.393 241.714,190.01 269.472,203.889 C323.691,230.998 363.64,198.832 363.64,240.984 z"
        fill-opacity="0" stroke="#5F4A3E" stroke-width="4.8" stroke-linecap="round"
        stroke-linejoin="round" />
    </g>
    <g class="head">
      <path
        d="M210.976,132.551 C210.976,175.103 176.484,209.597 133.929,209.597 C91.375,209.597 56.882,175.103 56.882,132.551 C56.882,89.998 91.375,55.504 133.929,55.504 C176.484,55.504 210.976,89.998 210.976,132.551"
        fill="#FFFFFE" />
      <path
        d="M210.976,132.551 C210.976,175.103 176.484,209.597 133.929,209.597 C91.375,209.597 56.882,175.103 56.882,132.551 C56.882,89.998 91.375,55.504 133.929,55.504 C176.484,55.504 210.976,89.998 210.976,132.551 z"
        fill-opacity="0" stroke="#5F4A3E" stroke-width="4.8" stroke-linecap="round"
        stroke-linejoin="round" />
    </g>
    <g class="rightWing">
      <path
        d="M203.507,182.584 C203.507,182.584 291.972,151.193 313.371,122.658 C334.773,94.123 353.32,132.644 343.332,154.047 C333.347,175.449 320.504,185.437 320.504,185.437 C320.504,185.437 351.894,164.035 360.457,175.449 C369.019,186.863 359.027,225.387 331.918,236.801 C304.812,248.215 354.746,233.949 353.324,256.777 C351.894,279.605 329.066,302.435 270.57,288.166"
        fill="#FFFFFE" />
      <path
        d="M203.507,182.584 C203.507,182.584 291.972,151.193 313.371,122.658 C334.773,94.123 353.32,132.644 343.332,154.047 C333.347,175.449 320.504,185.437 320.504,185.437 C320.504,185.437 351.894,164.035 360.457,175.449 C369.019,186.863 359.027,225.387 331.918,236.801 C304.812,248.215 354.746,233.949 353.324,256.777 C351.894,279.605 329.066,302.435 270.57,288.166"
        fill-opacity="0" stroke="#5F4A3E" stroke-width="4.8" stroke-linecap="round"
        stroke-linejoin="round" />
    </g>
    <g class="eye">
      <path
        d="M108.89,133.152 C108.89,142.551 114.5,150.16 121.421,150.16 C128.351,150.16 133.968,142.551 133.968,133.152 C133.968,123.754 128.351,116.137 121.421,116.137 C114.5,116.137 108.89,123.754 108.89,133.152"
        fill="#5F4A3E" />
      <path
        d="M184.867,427.385 C184.867,427.385 171.129,413.475 167.621,421.217 C164.109,428.959 182.402,428.943 194.156,432.693 C204.093,435.865 184.867,427.385 184.867,427.385"
        fill="#FACA22" />
    </g>
    <g class="rightFoot">
      <path
        d="M184.867,427.385 C184.867,427.385 171.129,413.475 167.621,421.217 C164.109,428.959 182.402,428.943 194.156,432.693 C204.093,435.865 184.867,427.385 184.867,427.385 z"
        fill-opacity="0" stroke="#5F4A3E" stroke-width="4.8" stroke-linecap="round"
        stroke-linejoin="round" />
      <path
        d="M224.16,418.439 C218,433.396 211.121,458.56 193.523,440.084 C175.925,421.607 152.164,394.326 165.367,393.447 C178.562,392.568 181.203,411.045 181.203,411.045 C181.203,411.045 162.726,360.006 182.086,366.17 C201.445,372.326 194.406,406.646 194.406,406.646 C194.406,406.646 189.304,379.826 202.414,382.24 C215.523,384.646 209.363,418.967 209.363,418.967"
        fill="#FACA22" />
      <path
        d="M224.16,418.439 C218,433.396 211.121,458.56 193.523,440.084 C175.925,421.607 152.164,394.326 165.367,393.447 C178.562,392.568 181.203,411.045 181.203,411.045 C181.203,411.045 162.726,360.006 182.086,366.17 C201.445,372.326 194.406,406.646 194.406,406.646 C194.406,406.646 189.304,379.826 202.414,382.24 C215.523,384.646 209.363,418.967 209.363,418.967"
        fill-opacity="0" stroke="#5F4A3E" stroke-width="4.8" stroke-linecap="round"
        stroke-linejoin="round" />
    </g>
    <g class="beard">
      <path
        d="M73.851,182.258 C73.851,182.258 47.453,201.617 65.05,214.816 C82.648,228.015 80.89,196.338 80.89,196.338 C80.89,196.338 67.687,219.215 83.531,223.615 C99.367,228.015 96.73,204.256 88.812,180.498 C80.89,156.74 73.851,182.258 73.851,182.258"
        fill="#AD2E3D" />
      <path
        d="M73.851,182.258 C73.851,182.258 47.453,201.617 65.05,214.816 C82.648,228.015 80.89,196.338 80.89,196.338 C80.89,196.338 67.687,219.215 83.531,223.615 C99.367,228.015 96.73,204.256 88.812,180.498 C80.89,156.74 73.851,182.258 73.851,182.258 z"
        fill-opacity="0" stroke="#5F4A3E" stroke-width="4.8" stroke-linecap="round" />
    </g>
    <g class="beak">
      <path
        d="M33.093,150.601 L53.972,168.916 L46.281,180.271 C46.281,180.271 82.171,184.303 88.402,170.383 C94.632,156.463 90.234,121.299 33.093,150.601"
        fill="#EB9073" />
      <path
        d="M33.093,150.601 L53.972,168.916 L46.281,180.271 C46.281,180.271 82.171,184.303 88.402,170.383 C94.632,156.463 90.234,121.299 33.093,150.601 z"
        fill-opacity="0" stroke="#5F4A3E" stroke-width="4.8" stroke-linecap="round"
        stroke-linejoin="round" />
      <path
        d="M98.293,163.789 C98.293,163.789 104.156,137.047 76.316,133.385 C48.476,129.724 31.628,149.869 31.628,149.869 C31.628,149.869 47.746,172.947 77.046,166.719 C84.742,163.422 85.839,163.422 85.839,163.422 C85.839,163.422 68.992,176.242 46.281,180.271 C45.179,180.639 84.742,204.082 98.293,163.789"
        fill="#FACA22" />
      <path
        d="M98.293,163.789 C98.293,163.789 104.156,137.047 76.316,133.385 C48.476,129.724 31.628,149.869 31.628,149.869 C31.628,149.869 47.746,172.947 77.046,166.719 C84.742,163.422 85.839,163.422 85.839,163.422 C85.839,163.422 68.992,176.242 46.281,180.271 C45.179,180.639 84.742,204.082 98.293,163.789 z M83.273,164.887 C84.007,163.422 100.492,161.224 97.929,149.502"
        fill-opacity="0" stroke="#5F4A3E" stroke-width="4.8" stroke-linecap="round"
        stroke-linejoin="round" />
    </g>
    <g class="leftFoot">
      <path
        d="M148.148,405.935 C141.984,420.896 135.109,446.06 117.507,427.584 C99.914,409.103 76.152,381.826 89.351,380.943 C102.55,380.064 105.191,398.545 105.191,398.545 C105.191,398.545 86.711,347.506 106.07,353.666 C125.429,359.826 118.39,394.146 118.39,394.146 C118.39,394.146 113.289,367.326 126.398,369.736 C139.507,372.146 133.351,406.463 133.351,406.463 C133.351,406.463 138.144,396.185 142.144,399.935 C146.144,403.685 134.64,413.685 134.64,413.685"
        fill="#FACA22" />
      <path
        d="M148.148,405.935 C141.984,420.896 135.109,446.06 117.507,427.584 C99.914,409.103 76.152,381.826 89.351,380.943 C102.55,380.064 105.191,398.545 105.191,398.545 C105.191,398.545 86.711,347.506 106.07,353.666 C125.429,359.826 118.39,394.146 118.39,394.146 C118.39,394.146 113.289,367.326 126.398,369.736 C139.507,372.146 133.351,406.463 133.351,406.463 C133.351,406.463 138.144,396.185 142.144,399.935 C146.144,403.685 134.64,413.685 134.64,413.685"
        fill-opacity="0" stroke="#5F4A3E" stroke-width="4.8" stroke-linecap="round"
        stroke-linejoin="round" />
    </g>
    <g class="tuft">
      <path
        d="M87.617,249.445 C87.617,249.445 75.679,292.221 98.558,297.195 C108.507,300.178 112.484,284.264 112.484,284.264 C112.484,284.264 103.531,320.076 131.386,324.053 C159.242,328.033 151.281,291.226 151.281,291.226"
        fill="#FFFFFE" />
      <path
        d="M87.617,249.445 C87.617,249.445 75.679,292.221 98.558,297.195 C108.507,300.178 112.484,284.264 112.484,284.264 C112.484,284.264 103.531,320.076 131.386,324.053 C159.242,328.033 151.281,291.226 151.281,291.226"
        fill-opacity="0" stroke="#5F4A3E" stroke-width="4.8" stroke-linecap="round"
        stroke-linejoin="round" />
    </g>
  </g>
</svg>